<svg id="Layer_1" enable-background="new 0 0 512 512" height="512" viewBox="0 0 512 512" width="512" xmlns="http://www.w3.org/2000/svg"><g><path d="m46.215 393.609 399.404 28.532c34.607-42.248 55.38-96.266 55.38-155.14 0-135.309-109.69-244.998-244.999-244.998s-244.999 109.689-244.999 244.998c0 46.333 12.866 89.659 35.214 126.608z" fill="#ffdd40"/><path d="m132.063 478.365c36.361 21.368 78.713 33.635 123.937 33.635s87.576-12.267 123.938-33.635z" fill="#2a428c"/><path d="m236.173 511.201c-6.725-8.128-5.971-16.708-3.775-22.974 1.144-3.263 1.04-6.719-.076-9.862h-100.26c30.994 18.214 66.343 29.808 104.111 32.836z" fill="#1c2e7a"/><path d="m104.212 324.877h206.948v27.335h-206.948z" fill="#e80054"/><path d="m469.357 171.685-112.155 64.753c4.46 8.803 7.024 18.533 7.024 28.801 0 12.054-8.178 22.432-19.889 25.238l-2.836.679c.384.184 10.581 12.581 39.883 18.878.505.109 12.368 2.803 12.449 14.677.047 6.821-7.609 15.022-19.749 14.965l-21.441.008v3.161c5.264 0 9.735 4.555 9.185 10.152-.458 4.659-4.64 8.308-9.522 8.308h-8.058v3.161c10.756 0 14.068 14.726 4.148 19.254l-6.613 3.019h12.432c4.048 0 7.816 1.193 11.002 3.223l88.283-50.97z" fill="#e9efff"/><path d="m374.083 339.676-21.441.008v3.161c5.264 0 9.735 4.555 9.185 10.152-.458 4.659-4.64 8.308-9.522 8.308h-8.058v3.161c10.756 0 14.068 14.726 4.148 19.254l-6.613 3.019h12.432c4.049 0 7.816 1.193 11.002 3.223l16.498-9.525c0-12.559 0-26.825 0-41.937-2.283.748-4.831 1.19-7.631 1.176z" fill="#bec8f7"/><path d="m364.226 265.239c0 12.054-8.178 22.432-19.889 25.238l-2.836.679c.384.185 10.581 12.581 39.883 18.878.04.009.159.036.331.08 0-30.135 0-61.407 0-87.829l-24.513 14.152c4.459 8.803 7.024 18.533 7.024 28.802z" fill="#bec8f7"/><g><path d="m274.65 76.443-9.51-37.672c-1.068-4.233 1.496-8.529 5.728-9.597 4.234-1.073 8.529 1.496 9.598 5.728l9.51 37.672c1.068 4.233-1.496 8.529-5.728 9.597-4.214 1.068-8.527-1.483-9.598-5.728z" fill="#ff4155"/></g><g><path d="m239.04 18.441h-32.5c-4.365 0-7.903-3.538-7.903-7.903s3.538-7.903 7.903-7.903h32.501c4.365 0 7.903 3.538 7.903 7.903s-3.539 7.903-7.904 7.903z" fill="#e80054"/></g><path d="m285.859 193.194c30.264 0 60.12 18.765 72.448 45.552l110.754-63.944 4.333-45.714h-240.144l6.076 64.105h46.533z" fill="#ff4155"/><path d="m233.25 129.089 6.076 64.105h46.533c30.264 0 60.12 18.765 72.448 45.552l23.407-13.514c0-6.383 0-12.509 0-18.284 0-56.067 20.833-72.842 32.929-77.859z" fill="#e80054"/><path d="m453.795 335.875-91.215 52.663c7.169 3.211 12.184 10.4 12.184 18.751 0 10.953-8.583 19.956-19.54 20.495l-7.8.384 7.336 2.679c9.429 3.443 13.108 16.028 5.436 24.103-13.737 14.454-32.278 22.415-52.206 22.415h-3.202v1.581h74.166c25.499-14.825 48.078-34.115 66.665-56.806z" fill="#ff4155"/><path d="m381.714 377.491-19.135 11.047c7.169 3.211 12.184 10.4 12.184 18.751 0 10.953-8.582 19.956-19.54 20.496l-7.8.384 7.336 2.679c9.429 3.443 13.108 16.028 5.436 24.103-13.737 14.454-32.278 22.415-52.206 22.415h-3.201v1.581h74.166c7.38-4.291 14.507-8.967 21.373-13.98-19.507-12.066-18.612-35.548-18.612-35.548s-.001-21.27-.001-51.928z" fill="#e80054"/><g><path d="m467.347 103.798c-1.415-17.626-16.27-31.614-34.244-31.614h-162.507c-17.974 0-32.829 13.988-34.244 31.614z" fill="#e9efff"/></g><path d="m380.697 72.185h-110.101c-17.974 0-32.829 13.988-34.244 31.614h144.49c-15.969-3.581-16.475-28.098-.145-31.614z" fill="#d3dcfb"/><g><path d="m475.402 130.143h-244.161c-7.857 0-14.226-6.369-14.226-14.226s6.369-14.226 14.226-14.226h244.161c7.857 0 14.226 6.369 14.226 14.226.001 7.857-6.368 14.226-14.226 14.226z" fill="#d3dcfb"/></g><path d="m365.807 115.917c0-7.857 6.369-14.226 14.226-14.226h-148.792c-7.857 0-14.226 6.369-14.226 14.226s6.369 14.226 14.226 14.226h148.792c-7.857 0-14.226-6.369-14.226-14.226z" fill="#bec8f7"/><g><path d="m320.243 168.255h-53.833c-4.365 0-7.903-3.538-7.903-7.903s3.539-7.903 7.903-7.903h53.833c4.365 0 7.903 3.538 7.903 7.903s-3.538 7.903-7.903 7.903z" fill="#ff7186"/></g><path d="m349.588 428.365h-125.905l-2.945 2.945c-6.546 6.547-17.144 6.547-23.69 0l-2.945-2.945h-122.444c17.526 20.006 38.254 37.133 61.388 50.582h174.942c21.002 0 39.943-8.797 53.351-22.906 9.926-10.446 2.658-27.676-11.752-27.676z" fill="#fcad6d"/><path d="m219.913 438.306c.532-2.137.599-4.335.23-6.458-6.578 5.985-16.74 5.818-23.095-.538l-2.945-2.945h-121.611l-.464.412c17.449 19.827 38.046 36.814 61.019 50.169h99.47c-.771-2.479-2.163-4.786-4.084-6.677-11.785-11.592-10.491-26.041-8.52-33.963z" fill="#fd995b"/><path d="m144.005 378.396c-7.491-7.491-16.759-12.785-26.809-15.508h-43.658c-6.415 0-11.663 5.248-11.663 11.663 0 6.415 5.248 11.663 11.663 11.663h74.685c1.093 0 2.147-.163 3.152-.448z" fill="#ff9100"/><path d="m344.247 362.888h-43.658c-10.05 2.723-19.318 8.017-26.809 15.508l-7.371 7.371c1.005.284 2.059.448 3.152.448h74.685c6.415 0 11.663-5.248 11.663-11.663.001-6.416-5.247-11.664-11.662-11.664z" fill="#ffb332"/><path d="m72.595 429.419h122.562l-44.26-44.259h-87.327c-7.017 0-13.293 3.314-17.355 8.449 7.708 12.745 16.553 24.722 26.38 35.81z" fill="#823c26"/><path d="m354.215 385.16h-87.327l-44.26 44.259h131.586c12.171 0 22.129-9.958 22.129-22.13.002-12.171-9.957-22.129-22.128-22.129z" fill="#a05838"/><g><path d="m252.109 326.403c-21.602 0-21.614-21.076-43.216-21.076s-21.614 21.076-43.216 21.076c-20.87 0-21.582-19.669-41.087-21.001v23.218c0 6.955 5.69 12.646 12.645 12.646h139.1c6.955 0 12.645-5.691 12.645-12.646v-22.585c-15.514 3.645-17.622 20.368-36.871 20.368z" fill="#ff7186"/></g><path d="m186.598 339.081c-3.975-3.86-4.288-10.191-4.134-13.542.065-1.423-.525-2.785-1.588-3.732-.056-.05-.105-.099-.16-.149-3.812 2.754-8.406 4.745-15.04 4.745-20.87 0-21.582-19.669-41.087-21.001v23.218c0 6.955 5.69 12.646 12.645 12.646h50.558c-.177-.812-.568-1.577-1.194-2.185z" fill="#ff4155"/><g><path d="m79.274 326.403c-3.535 0-6.484-.572-9.052-1.516-9.649 10.055-19.55 16.675-27.829 16.322v.056h69.55c6.955 0 12.646-5.691 12.646-12.646v-23.218c-.683-.047-1.386-.075-2.117-.075-21.599.001-21.599 21.077-43.198 21.077z" fill="#ff4155"/></g><g><path d="m374.074 341.23c-8.001-.054-17.369-6.816-26.511-16.343-2.568.944-5.516 1.516-9.052 1.516-21.599 0-21.599-21.076-43.198-21.076-2.352 0-4.436.262-6.332.707v22.585c0 6.955 5.69 12.646 12.645 12.646h72.448z" fill="#ff4155"/></g><g><path d="m272.795 47.376c-4.712 0-9.004-3.183-10.21-7.96-2.726-10.798-12.408-18.341-23.545-18.341-5.82 0-10.538-4.718-10.538-10.538.001-5.819 4.718-10.537 10.538-10.537 20.802 0 38.888 14.087 43.98 34.256 1.425 5.644-1.995 11.372-7.638 12.797-.865.219-1.733.323-2.587.323z" fill="#ff7186"/></g><path d="m50.548 311.101c-4.625-1.554-9.567-2.612-14.477-2.612 0 0-13.608 2.873-13.699 16.213-.095 13.815 25.36 27.987 48.876 2.282-8.942-3.302-13.177-11.197-20.7-15.883z" fill="#24b55e"/><path d="m367.237 311.101c4.625-1.554 9.568-2.612 14.477-2.612 0 0 13.608 2.873 13.699 16.213.095 13.815-25.36 27.987-48.876 2.282 8.942-3.302 13.177-11.197 20.7-15.883z" fill="#24b55e"/><path d="m352.642 341.265h-287.162c-5.617 0-10.547 4.145-11.095 9.735-.631 6.424 4.456 11.887 10.757 11.887h36.335c15.95 0 31.248 6.336 42.527 17.615l51.925 51.925c7.159 7.159 18.766 7.159 25.925 0l51.925-51.925c11.279-11.279 26.577-17.615 42.527-17.615h35.997c5.617 0 10.547-4.145 11.095-9.735.632-6.423-4.455-11.887-10.756-11.887z" fill="#ffdd40"/><path d="m54.385 351c-.631 6.424 4.457 11.887 10.758 11.887h36.335c15.95 0 31.248 6.336 42.527 17.616l51.925 51.925c7.159 7.159 18.766 7.159 25.925 0l28.478-28.478c-23.748 11.752-47.461-24.294-60.419-37.252-8.789-8.789-5.656-17.355-2.73-21.958.67-1.055.863-2.314.609-3.476h-122.313c-5.617.001-10.547 4.146-11.095 9.736z" fill="#ffb332"/><path d="m343.372 290.67h-268.959c-10.899 11.926-38.342 17.818-38.342 17.818 21.602 0 21.602 21.076 43.203 21.076 21.599 0 21.599-21.076 43.198-21.076 21.602 0 21.602 21.076 43.204 21.076s21.614-21.076 43.216-21.076 21.614 21.076 43.216 21.076 21.602-21.076 43.204-21.076c21.599 0 21.599 21.076 43.198 21.076 21.602 0 21.602-21.076 43.203-21.076.001.001-27.443-5.892-38.341-17.818z" fill="#49d88b"/><path d="m36.071 308.488c21.602 0 21.602 21.076 43.203 21.076 21.599 0 21.599-21.076 43.198-21.076 21.602 0 21.602 21.076 43.204 21.076 7.498 0 12.393-2.541 16.495-5.856-.268-.72-.705-1.376-1.295-1.901-11.856-10.559-6.169-21.203-2.26-26.158 1.142-1.448 1.273-3.407.435-4.979h-104.638c-10.898 11.926-38.342 17.818-38.342 17.818z" fill="#38c674"/><path d="m285.859 191.614h-153.933c-40.662 0-79.948 32.963-79.948 73.625 0 15.21 12.33 27.539 27.539 27.539h258.751c15.21 0 27.539-12.329 27.539-27.539 0-40.662-39.286-73.625-79.948-73.625z" fill="#fcad6d"/><path d="m178.48 289.818c-23.995-27.545-.144-55.004-.144-55.004l2.911-21.767c-7.331-7.331-6.345-13.733-4.488-17.587.591-1.226.801-2.557.672-3.846h-45.505c-40.662 0-79.948 32.963-79.948 73.625 0 15.209 12.33 27.539 27.539 27.539h100.077c-.008-1.06-.377-2.114-1.114-2.96z" fill="#fd995b"/><g><path d="m278.484 232.499c-3.086-3.086-3.086-8.091.001-11.177l5.962-5.96c3.087-3.085 8.091-3.086 11.177.001 3.086 3.086 3.086 8.091-.001 11.177l-5.962 5.96c-3.087 3.085-8.091 3.086-11.177-.001z" fill="#fcf0be"/></g><g><path d="m224.68 232.499c-3.086-3.086-3.086-8.091.001-11.177l5.961-5.96c3.087-3.085 8.091-3.086 11.178.001 3.086 3.086 3.086 8.091-.001 11.177l-5.961 5.96c-3.087 3.085-8.09 3.086-11.178-.001z" fill="#fcf0be"/></g><g><path d="m170.877 232.499c-3.086-3.086-3.086-8.091.001-11.177l5.961-5.96c3.087-3.085 8.091-3.086 11.178.001 3.086 3.086 3.086 8.091-.001 11.177l-5.961 5.96c-3.087 3.085-8.09 3.086-11.178-.001z" fill="#fcf0be"/></g><g><path d="m117.074 232.499c-3.086-3.086-3.086-8.091.001-11.177l5.961-5.96c3.087-3.085 8.091-3.086 11.178.001 3.086 3.086 3.086 8.091-.001 11.177l-5.961 5.96c-3.088 3.085-8.091 3.086-11.178-.001z" fill="#fcf0be"/></g><g><path d="m271.383 13.548c-8.31-8.448-19.832-13.548-32.343-13.548-5.82 0-10.538 4.719-10.538 10.538 0 5.82 4.718 10.538 10.538 10.538 6.654 0 12.776 2.707 17.218 7.178-2.116-9.045 6.124-17.082 15.125-14.706z" fill="#ff4155"/></g></g></svg>